<svg width="512" height="512" viewBox="0 0 512 512" fill="none" xmlns="http://www.w3.org/2000/svg">
  <defs>
    <linearGradient id="gestureGrad" x1="100" y1="100" x2="400" y2="400" gradientUnits="userSpaceOnUse">
      <stop offset="0%" stop-color="#1e3a8a" /> <stop offset="100%" stop-color="#3b82f6" /> </linearGradient>
    <color id="sparkleColor" value="#fbbf24"/> </defs>

  <path d="M180 140 C180 90 240 70 290 110 C320 135 310 170 310 170 V 360 C 310 400 280 430 240 430 H 160 C 120 430 100 400 110 350 C 120 300 180 250 280 280 C 330 295 380 280 420 240" 
        stroke="url(#gestureGrad)" 
        stroke-width="28" 
        stroke-linecap="round" 
        stroke-linejoin="round"
        fill="none"/>

  <g fill="url(#sparkleColor)">
    <path d="M450 210 C450 210 460 180 470 210 C470 210 500 220 470 230 C470 230 460 260 450 230 C450 230 420 220 450 210 Z" />
    
    <circle cx="410" cy="190" r="8" />
    <circle cx="480" cy="260" r="5" />
  </g>
</svg>
